<?xml version="1.0" encoding="UTF-8"?>
<!-- Generated by Pixelmator Pro 3.7.1 -->
<svg width="512" height="512" viewBox="0 0 512 512" xmlns="http://www.w3.org/2000/svg">
    <g id="Agrupar">
        <path id="valo" fill="#000000" fill-rule="evenodd" stroke="none" d="M 486 256.5 C 486 129.198364 382.801636 26 255.5 26 C 128.198364 26 25 129.198364 25 256.5 C 25 383.801636 128.198364 487 255.5 487 C 382.801636 487 486 383.801636 486 256.5 Z"/>
        <path id="Figura-copia-2" fill="#282727" fill-rule="evenodd" stroke="none" d="M 469.973419 256.5 C 469.973419 138.049622 373.950378 42.026581 255.5 42.026581 C 137.049606 42.026581 41.026585 138.049622 41.026585 256.5 C 41.026585 374.950378 137.049606 470.973419 255.5 470.973419 C 373.950378 470.973419 469.973419 374.950378 469.973419 256.5 Z"/>
    </g>
    <text id="MMB" xml:space="preserve" x="206" y="431" font-family="Iosevka" font-size="64" fill="#666666">MMB</text>
    <g id="g1">
        <path id="Figura-copia-3" fill="#ffe9ca" fill-rule="evenodd" stroke="none" d="M 343 256.5 C 343 208.175079 303.824921 169 255.5 169 C 207.175079 169 168 208.175079 168 256.5 C 168 304.824921 207.175079 344 255.5 344 C 303.824921 344 343 304.824921 343 256.5 Z"/>
        <path id="Figura-copia-4" fill="#ff9400" fill-rule="evenodd" stroke="none" d="M 329.79245 256.5 C 329.79245 215.469421 296.530579 182.20755 255.5 182.20755 C 214.469406 182.20755 181.20755 215.469421 181.20755 256.5 C 181.20755 297.530579 214.469406 330.79245 255.5 330.79245 C 296.530579 330.79245 329.79245 297.530579 329.79245 256.5 Z"/>
        <path id="Figura-copia-5" fill="#ffe9ca" fill-rule="evenodd" stroke="none" d="M 278.062897 256.5 C 278.062897 244.038849 267.961151 233.937103 255.5 233.937103 C 243.038864 233.937103 232.937103 244.038849 232.937103 256.5 C 232.937103 268.961121 243.038864 279.062897 255.5 279.062897 C 267.961151 279.062897 278.062897 268.961121 278.062897 256.5 Z"/>
        <path id="Figura-copia-6" fill="#000000" fill-rule="evenodd" stroke="none" d="M 262.654083 256.5 C 262.654083 252.54892 259.45108 249.345917 255.5 249.345917 C 251.548904 249.345917 248.345917 252.54892 248.345917 256.5 C 248.345917 260.451111 251.548904 263.654083 255.5 263.654083 C 259.45108 263.654083 262.654083 260.451111 262.654083 256.5 Z"/>
    </g>
    <path id="Figura" fill="#ffffff" fill-rule="evenodd" stroke="none" visibility="hidden" d="M 113.891815 455.729126 C 137.44194 469.046753 160.245773 463.118591 174.141739 440.115326 C 192.833099 409.173828 200.515884 341.839294 186.33876 299.778656 C 180.002411 280.97998 187.321823 248.243103 198.499359 278.933075 C 247.071381 412.296295 256.198547 406.165283 271.140106 418.589935 C 292.537476 436.384277 269.017181 310.921936 267.060791 303.2258 C 258.419891 269.233032 262.880035 207.362335 275.572693 208.098907 C 299.638 209.495483 291.878967 357.907532 397.467255 391.938538 C 497.539337 424.191589 459.34433 243.441742 393.139374 199.392303 C 331.486145 158.369843 299.072052 152.352844 327.785187 144.422638 C 362.490051 134.837585 405.079132 86.328064 354.383148 36.913208 C 315.678955 -0.812927 228.918167 20.634247 238.788147 21.013 C 371.476349 26.104919 352.791595 89.457214 352.03949 91.497589 C 328.097473 156.445801 258.910797 133.799011 317.085938 179.036652 C 345.848907 201.403961 435.077576 279.301575 423.95108 331.89856 C 414.875946 374.798126 344.651611 325.716187 320.679077 283.716461 C 303.723633 254.010681 299.05957 180.918396 265.844116 197.927185 C 260.269165 200.781433 248.753601 221.464355 251.494675 268.594055 C 253.516937 303.364685 290.004761 432.124817 258.907166 392.834778 C 239.144089 367.865265 209.982056 304.110046 197.050354 240.416656 C 194.734024 229.007629 168.472321 255.373871 167.669571 283.081787 C 166.466568 324.607178 187.280716 351.47171 178.850739 387.421539 C 172.292755 415.389252 143.246231 374.240356 119.694412 384.305969 C 71.968697 404.703125 100.792557 448.321472 113.891815 455.729126 Z"/>
    <path id="path1" fill="#ffffff" fill-rule="evenodd" stroke="#000000" stroke-width="5" stroke-linecap="round" stroke-linejoin="round" d="M 455.679504 163.192871 L 490.699585 110.509186 C 499.389221 97.436615 501.446869 92.521484 502.617249 83.482391 C 505.189178 62.023712 492.643555 36.01358 473.349518 23.188385 C 454.894348 10.920776 434.510651 13.078583 424.010651 28.874603 C 410.795166 48.755829 422.03952 80.969238 448.324188 98.441284 C 457.272125 104.389191 463.868378 107.203125 473.492035 108.495331 L 351.474915 292.05603 L 351.614746 292.148987 L 350.55368 293.745239 L 383.370636 315.559448 C 386.736481 317.796814 390.258514 319.728943 393.936798 321.355896 C 397.615082 322.982849 401.424835 324.060913 405.366211 324.590088 C 409.307526 325.119324 413.250824 325.013641 417.19632 324.27298 C 421.141785 323.532349 424.876007 322.196899 428.399078 320.266479 C 431.92215 318.33606 435.043518 315.95697 437.763306 313.128967 C 440.483063 310.300995 442.932495 307.247925 445.111633 303.969666 C 447.123108 300.943604 448.864288 297.692444 450.335144 294.216125 C 451.806 290.739746 452.644714 287.161377 452.851288 283.480957 C 453.057892 279.800507 452.708496 276.114105 451.803101 272.421692 C 450.897705 268.729309 449.440063 265.306152 447.430145 262.15213 C 451.634155 263.128601 455.969604 263.556244 460.436615 263.435028 C 464.903656 263.313782 469.146149 262.407043 473.164215 260.714783 C 477.182281 259.022552 480.7854 256.690887 483.973602 253.719849 C 487.161835 250.748749 489.971161 247.434998 492.401733 243.778503 C 494.748474 240.248077 496.760162 236.449554 498.436829 232.382782 C 500.113464 228.31604 501.093231 224.104279 501.37616 219.747375 C 501.659088 215.390472 501.205139 211.089233 500.014252 206.843445 C 498.823395 202.597687 497.047943 198.59967 494.687836 194.849243 C 492.327698 191.098846 489.491516 187.713745 486.179169 184.693848 C 482.866852 181.673981 479.398315 178.959351 475.77356 176.549866 L 455.679504 163.192871 Z M 423.474762 255.227417 L 405.804077 243.481293 L 374.500214 290.574341 L 392.170898 302.320435 C 395.277863 304.385712 398.687622 305.925049 402.400391 306.938599 C 406.113098 307.952148 409.780304 307.981079 413.40213 307.025299 C 417.023956 306.069519 420.208008 304.368317 422.954315 301.921631 C 425.700684 299.474915 428.079559 296.738556 430.091064 293.712463 C 432.186401 290.560303 433.830444 287.244629 435.023285 283.765228 C 436.216156 280.285889 436.552185 276.691559 436.031433 272.982117 C 435.510681 269.272644 434.064453 265.902527 431.692749 262.871643 C 429.320984 259.840698 426.581696 257.292664 423.474762 255.227417 Z M 473.877991 195.196686 C 471.734497 193.226471 469.432953 191.423859 466.973297 189.788879 L 449.302612 178.042755 L 414.60437 230.242279 L 432.275055 241.988373 C 434.734711 243.623383 437.287689 245.047699 439.934082 246.261444 C 442.580444 247.475159 445.360168 248.277588 448.273346 248.668732 C 451.186493 249.059845 454.061646 249.016754 456.898865 248.539337 C 459.736084 248.061951 462.42868 247.170258 464.976685 245.864319 C 467.524689 244.55835 469.789063 242.83667 471.769867 240.699158 C 473.750702 238.561676 475.495361 236.358215 477.003998 234.088654 C 478.596436 231.693024 479.973724 229.19986 481.135864 226.6091 C 482.298035 224.018341 482.988007 221.295563 483.205811 218.440674 C 483.423615 215.585754 483.192078 212.704895 482.511169 209.798004 C 481.830231 206.891083 480.75705 204.223419 479.291534 201.794861 C 477.825989 199.366302 476.021515 197.166931 473.877991 195.196686 Z"/>
</svg>
